<mxfile host="app.diagrams.net" agent="Mozilla/5.0 (Windows NT 10.0; Win64; x64) AppleWebKit/537.36 (KHTML, like Gecko) Chrome/130.0.0.0 Safari/537.36" version="24.8.6">
  <diagram name="Page-1" id="ynjFzioB9sbgWigCWngJ">
    <mxGraphModel dx="1900" dy="746" grid="0" gridSize="10" guides="1" tooltips="1" connect="1" arrows="1" fold="1" page="0" pageScale="1" pageWidth="827" pageHeight="1169" background="#ffffff" math="0" shadow="0">
      <root>
        <mxCell id="0" />
        <mxCell id="1" parent="0" />
        <mxCell id="4C0OOVaGoJYogmDqNnLf-41" value="animal" style="shape=table;startSize=30;container=1;collapsible=1;childLayout=tableLayout;fixedRows=1;rowLines=0;fontStyle=1;align=center;resizeLast=1;html=1;" vertex="1" parent="1">
          <mxGeometry x="307" y="56" width="268.3571079799108" height="300" as="geometry" />
        </mxCell>
        <mxCell id="4C0OOVaGoJYogmDqNnLf-42" value="" style="shape=tableRow;horizontal=0;startSize=0;swimlaneHead=0;swimlaneBody=0;fillColor=none;collapsible=0;dropTarget=0;points=[[0,0.5],[1,0.5]];portConstraint=eastwest;top=0;left=0;right=0;bottom=1;" vertex="1" parent="4C0OOVaGoJYogmDqNnLf-41">
          <mxGeometry y="30" width="268.3571079799108" height="30" as="geometry" />
        </mxCell>
        <mxCell id="4C0OOVaGoJYogmDqNnLf-43" value="PK" style="shape=partialRectangle;connectable=0;fillColor=none;top=0;left=0;bottom=0;right=0;fontStyle=1;overflow=hidden;whiteSpace=wrap;html=1;" vertex="1" parent="4C0OOVaGoJYogmDqNnLf-42">
          <mxGeometry width="30" height="30" as="geometry">
            <mxRectangle width="30" height="30" as="alternateBounds" />
          </mxGeometry>
        </mxCell>
        <mxCell id="4C0OOVaGoJYogmDqNnLf-44" value="id:int" style="shape=partialRectangle;connectable=0;fillColor=none;top=0;left=0;bottom=0;right=0;align=left;spacingLeft=6;fontStyle=5;overflow=hidden;whiteSpace=wrap;html=1;" vertex="1" parent="4C0OOVaGoJYogmDqNnLf-42">
          <mxGeometry x="30" width="238.35710797991078" height="30" as="geometry">
            <mxRectangle width="238.35710797991078" height="30" as="alternateBounds" />
          </mxGeometry>
        </mxCell>
        <mxCell id="4C0OOVaGoJYogmDqNnLf-45" value="" style="shape=tableRow;horizontal=0;startSize=0;swimlaneHead=0;swimlaneBody=0;fillColor=none;collapsible=0;dropTarget=0;points=[[0,0.5],[1,0.5]];portConstraint=eastwest;top=0;left=0;right=0;bottom=0;" vertex="1" parent="4C0OOVaGoJYogmDqNnLf-41">
          <mxGeometry y="60" width="268.3571079799108" height="30" as="geometry" />
        </mxCell>
        <mxCell id="4C0OOVaGoJYogmDqNnLf-46" value="" style="shape=partialRectangle;connectable=0;fillColor=none;top=0;left=0;bottom=0;right=0;editable=1;overflow=hidden;whiteSpace=wrap;html=1;" vertex="1" parent="4C0OOVaGoJYogmDqNnLf-45">
          <mxGeometry width="30" height="30" as="geometry">
            <mxRectangle width="30" height="30" as="alternateBounds" />
          </mxGeometry>
        </mxCell>
        <mxCell id="4C0OOVaGoJYogmDqNnLf-47" value="name: varchar(50)" style="shape=partialRectangle;connectable=0;fillColor=none;top=0;left=0;bottom=0;right=0;align=left;spacingLeft=6;overflow=hidden;whiteSpace=wrap;html=1;" vertex="1" parent="4C0OOVaGoJYogmDqNnLf-45">
          <mxGeometry x="30" width="238.35710797991078" height="30" as="geometry">
            <mxRectangle width="238.35710797991078" height="30" as="alternateBounds" />
          </mxGeometry>
        </mxCell>
        <mxCell id="4C0OOVaGoJYogmDqNnLf-48" value="" style="shape=tableRow;horizontal=0;startSize=0;swimlaneHead=0;swimlaneBody=0;fillColor=none;collapsible=0;dropTarget=0;points=[[0,0.5],[1,0.5]];portConstraint=eastwest;top=0;left=0;right=0;bottom=0;" vertex="1" parent="4C0OOVaGoJYogmDqNnLf-41">
          <mxGeometry y="90" width="268.3571079799108" height="30" as="geometry" />
        </mxCell>
        <mxCell id="4C0OOVaGoJYogmDqNnLf-49" value="" style="shape=partialRectangle;connectable=0;fillColor=none;top=0;left=0;bottom=0;right=0;editable=1;overflow=hidden;whiteSpace=wrap;html=1;" vertex="1" parent="4C0OOVaGoJYogmDqNnLf-48">
          <mxGeometry width="30" height="30" as="geometry">
            <mxRectangle width="30" height="30" as="alternateBounds" />
          </mxGeometry>
        </mxCell>
        <mxCell id="4C0OOVaGoJYogmDqNnLf-50" value="birthdate: date" style="shape=partialRectangle;connectable=0;fillColor=none;top=0;left=0;bottom=0;right=0;align=left;spacingLeft=6;overflow=hidden;whiteSpace=wrap;html=1;" vertex="1" parent="4C0OOVaGoJYogmDqNnLf-48">
          <mxGeometry x="30" width="238.35710797991078" height="30" as="geometry">
            <mxRectangle width="238.35710797991078" height="30" as="alternateBounds" />
          </mxGeometry>
        </mxCell>
        <mxCell id="4C0OOVaGoJYogmDqNnLf-51" value="" style="shape=tableRow;horizontal=0;startSize=0;swimlaneHead=0;swimlaneBody=0;fillColor=none;collapsible=0;dropTarget=0;points=[[0,0.5],[1,0.5]];portConstraint=eastwest;top=0;left=0;right=0;bottom=0;" vertex="1" parent="4C0OOVaGoJYogmDqNnLf-41">
          <mxGeometry y="120" width="268.3571079799108" height="30" as="geometry" />
        </mxCell>
        <mxCell id="4C0OOVaGoJYogmDqNnLf-52" value="" style="shape=partialRectangle;connectable=0;fillColor=none;top=0;left=0;bottom=0;right=0;editable=1;overflow=hidden;whiteSpace=wrap;html=1;" vertex="1" parent="4C0OOVaGoJYogmDqNnLf-51">
          <mxGeometry width="30" height="30" as="geometry">
            <mxRectangle width="30" height="30" as="alternateBounds" />
          </mxGeometry>
        </mxCell>
        <mxCell id="4C0OOVaGoJYogmDqNnLf-53" value="gender: varchar(50)" style="shape=partialRectangle;connectable=0;fillColor=none;top=0;left=0;bottom=0;right=0;align=left;spacingLeft=6;overflow=hidden;whiteSpace=wrap;html=1;" vertex="1" parent="4C0OOVaGoJYogmDqNnLf-51">
          <mxGeometry x="30" width="238.35710797991078" height="30" as="geometry">
            <mxRectangle width="238.35710797991078" height="30" as="alternateBounds" />
          </mxGeometry>
        </mxCell>
        <mxCell id="4C0OOVaGoJYogmDqNnLf-58" style="shape=tableRow;horizontal=0;startSize=0;swimlaneHead=0;swimlaneBody=0;fillColor=none;collapsible=0;dropTarget=0;points=[[0,0.5],[1,0.5]];portConstraint=eastwest;top=0;left=0;right=0;bottom=0;" vertex="1" parent="4C0OOVaGoJYogmDqNnLf-41">
          <mxGeometry y="150" width="268.3571079799108" height="30" as="geometry" />
        </mxCell>
        <mxCell id="4C0OOVaGoJYogmDqNnLf-59" style="shape=partialRectangle;connectable=0;fillColor=none;top=0;left=0;bottom=0;right=0;editable=1;overflow=hidden;whiteSpace=wrap;html=1;" vertex="1" parent="4C0OOVaGoJYogmDqNnLf-58">
          <mxGeometry width="30" height="30" as="geometry">
            <mxRectangle width="30" height="30" as="alternateBounds" />
          </mxGeometry>
        </mxCell>
        <mxCell id="4C0OOVaGoJYogmDqNnLf-60" value="health: text" style="shape=partialRectangle;connectable=0;fillColor=none;top=0;left=0;bottom=0;right=0;align=left;spacingLeft=6;overflow=hidden;whiteSpace=wrap;html=1;" vertex="1" parent="4C0OOVaGoJYogmDqNnLf-58">
          <mxGeometry x="30" width="238.35710797991078" height="30" as="geometry">
            <mxRectangle width="238.35710797991078" height="30" as="alternateBounds" />
          </mxGeometry>
        </mxCell>
        <mxCell id="4C0OOVaGoJYogmDqNnLf-61" style="shape=tableRow;horizontal=0;startSize=0;swimlaneHead=0;swimlaneBody=0;fillColor=none;collapsible=0;dropTarget=0;points=[[0,0.5],[1,0.5]];portConstraint=eastwest;top=0;left=0;right=0;bottom=0;" vertex="1" parent="4C0OOVaGoJYogmDqNnLf-41">
          <mxGeometry y="180" width="268.3571079799108" height="30" as="geometry" />
        </mxCell>
        <mxCell id="4C0OOVaGoJYogmDqNnLf-62" style="shape=partialRectangle;connectable=0;fillColor=none;top=0;left=0;bottom=0;right=0;editable=1;overflow=hidden;whiteSpace=wrap;html=1;" vertex="1" parent="4C0OOVaGoJYogmDqNnLf-61">
          <mxGeometry width="30" height="30" as="geometry">
            <mxRectangle width="30" height="30" as="alternateBounds" />
          </mxGeometry>
        </mxCell>
        <mxCell id="4C0OOVaGoJYogmDqNnLf-63" value="arrival_date: timestamp" style="shape=partialRectangle;connectable=0;fillColor=none;top=0;left=0;bottom=0;right=0;align=left;spacingLeft=6;overflow=hidden;whiteSpace=wrap;html=1;" vertex="1" parent="4C0OOVaGoJYogmDqNnLf-61">
          <mxGeometry x="30" width="238.35710797991078" height="30" as="geometry">
            <mxRectangle width="238.35710797991078" height="30" as="alternateBounds" />
          </mxGeometry>
        </mxCell>
        <mxCell id="4C0OOVaGoJYogmDqNnLf-64" style="shape=tableRow;horizontal=0;startSize=0;swimlaneHead=0;swimlaneBody=0;fillColor=none;collapsible=0;dropTarget=0;points=[[0,0.5],[1,0.5]];portConstraint=eastwest;top=0;left=0;right=0;bottom=0;" vertex="1" parent="4C0OOVaGoJYogmDqNnLf-41">
          <mxGeometry y="210" width="268.3571079799108" height="30" as="geometry" />
        </mxCell>
        <mxCell id="4C0OOVaGoJYogmDqNnLf-65" style="shape=partialRectangle;connectable=0;fillColor=none;top=0;left=0;bottom=0;right=0;editable=1;overflow=hidden;whiteSpace=wrap;html=1;" vertex="1" parent="4C0OOVaGoJYogmDqNnLf-64">
          <mxGeometry width="30" height="30" as="geometry">
            <mxRectangle width="30" height="30" as="alternateBounds" />
          </mxGeometry>
        </mxCell>
        <mxCell id="4C0OOVaGoJYogmDqNnLf-66" value="leaving_date: timestamp" style="shape=partialRectangle;connectable=0;fillColor=none;top=0;left=0;bottom=0;right=0;align=left;spacingLeft=6;overflow=hidden;whiteSpace=wrap;html=1;" vertex="1" parent="4C0OOVaGoJYogmDqNnLf-64">
          <mxGeometry x="30" width="238.35710797991078" height="30" as="geometry">
            <mxRectangle width="238.35710797991078" height="30" as="alternateBounds" />
          </mxGeometry>
        </mxCell>
        <mxCell id="4C0OOVaGoJYogmDqNnLf-67" style="shape=tableRow;horizontal=0;startSize=0;swimlaneHead=0;swimlaneBody=0;fillColor=none;collapsible=0;dropTarget=0;points=[[0,0.5],[1,0.5]];portConstraint=eastwest;top=0;left=0;right=0;bottom=0;" vertex="1" parent="4C0OOVaGoJYogmDqNnLf-41">
          <mxGeometry y="240" width="268.3571079799108" height="30" as="geometry" />
        </mxCell>
        <mxCell id="4C0OOVaGoJYogmDqNnLf-68" style="shape=partialRectangle;connectable=0;fillColor=none;top=0;left=0;bottom=0;right=0;editable=1;overflow=hidden;whiteSpace=wrap;html=1;" vertex="1" parent="4C0OOVaGoJYogmDqNnLf-67">
          <mxGeometry width="30" height="30" as="geometry">
            <mxRectangle width="30" height="30" as="alternateBounds" />
          </mxGeometry>
        </mxCell>
        <mxCell id="4C0OOVaGoJYogmDqNnLf-69" value="is_active: int" style="shape=partialRectangle;connectable=0;fillColor=none;top=0;left=0;bottom=0;right=0;align=left;spacingLeft=6;overflow=hidden;whiteSpace=wrap;html=1;" vertex="1" parent="4C0OOVaGoJYogmDqNnLf-67">
          <mxGeometry x="30" width="238.35710797991078" height="30" as="geometry">
            <mxRectangle width="238.35710797991078" height="30" as="alternateBounds" />
          </mxGeometry>
        </mxCell>
        <mxCell id="4C0OOVaGoJYogmDqNnLf-70" style="shape=tableRow;horizontal=0;startSize=0;swimlaneHead=0;swimlaneBody=0;fillColor=none;collapsible=0;dropTarget=0;points=[[0,0.5],[1,0.5]];portConstraint=eastwest;top=0;left=0;right=0;bottom=0;" vertex="1" parent="4C0OOVaGoJYogmDqNnLf-41">
          <mxGeometry y="270" width="268.3571079799108" height="30" as="geometry" />
        </mxCell>
        <mxCell id="4C0OOVaGoJYogmDqNnLf-71" value="FK" style="shape=partialRectangle;connectable=0;fillColor=none;top=0;left=0;bottom=0;right=0;editable=1;overflow=hidden;whiteSpace=wrap;html=1;" vertex="1" parent="4C0OOVaGoJYogmDqNnLf-70">
          <mxGeometry width="30" height="30" as="geometry">
            <mxRectangle width="30" height="30" as="alternateBounds" />
          </mxGeometry>
        </mxCell>
        <mxCell id="4C0OOVaGoJYogmDqNnLf-72" value="species_id: int" style="shape=partialRectangle;connectable=0;fillColor=none;top=0;left=0;bottom=0;right=0;align=left;spacingLeft=6;overflow=hidden;whiteSpace=wrap;html=1;" vertex="1" parent="4C0OOVaGoJYogmDqNnLf-70">
          <mxGeometry x="30" width="238.35710797991078" height="30" as="geometry">
            <mxRectangle width="238.35710797991078" height="30" as="alternateBounds" />
          </mxGeometry>
        </mxCell>
        <mxCell id="4C0OOVaGoJYogmDqNnLf-87" value="species" style="shape=table;startSize=30;container=1;collapsible=1;childLayout=tableLayout;fixedRows=1;rowLines=0;fontStyle=1;align=center;resizeLast=1;html=1;" vertex="1" parent="1">
          <mxGeometry x="-33" y="56" width="268.3571079799108" height="90" as="geometry" />
        </mxCell>
        <mxCell id="4C0OOVaGoJYogmDqNnLf-88" value="" style="shape=tableRow;horizontal=0;startSize=0;swimlaneHead=0;swimlaneBody=0;fillColor=none;collapsible=0;dropTarget=0;points=[[0,0.5],[1,0.5]];portConstraint=eastwest;top=0;left=0;right=0;bottom=1;" vertex="1" parent="4C0OOVaGoJYogmDqNnLf-87">
          <mxGeometry y="30" width="268.3571079799108" height="30" as="geometry" />
        </mxCell>
        <mxCell id="4C0OOVaGoJYogmDqNnLf-89" value="PK" style="shape=partialRectangle;connectable=0;fillColor=none;top=0;left=0;bottom=0;right=0;fontStyle=1;overflow=hidden;whiteSpace=wrap;html=1;" vertex="1" parent="4C0OOVaGoJYogmDqNnLf-88">
          <mxGeometry width="30" height="30" as="geometry">
            <mxRectangle width="30" height="30" as="alternateBounds" />
          </mxGeometry>
        </mxCell>
        <mxCell id="4C0OOVaGoJYogmDqNnLf-90" value="id:int" style="shape=partialRectangle;connectable=0;fillColor=none;top=0;left=0;bottom=0;right=0;align=left;spacingLeft=6;fontStyle=5;overflow=hidden;whiteSpace=wrap;html=1;" vertex="1" parent="4C0OOVaGoJYogmDqNnLf-88">
          <mxGeometry x="30" width="238.35710797991078" height="30" as="geometry">
            <mxRectangle width="238.35710797991078" height="30" as="alternateBounds" />
          </mxGeometry>
        </mxCell>
        <mxCell id="4C0OOVaGoJYogmDqNnLf-91" value="" style="shape=tableRow;horizontal=0;startSize=0;swimlaneHead=0;swimlaneBody=0;fillColor=none;collapsible=0;dropTarget=0;points=[[0,0.5],[1,0.5]];portConstraint=eastwest;top=0;left=0;right=0;bottom=0;" vertex="1" parent="4C0OOVaGoJYogmDqNnLf-87">
          <mxGeometry y="60" width="268.3571079799108" height="30" as="geometry" />
        </mxCell>
        <mxCell id="4C0OOVaGoJYogmDqNnLf-92" value="" style="shape=partialRectangle;connectable=0;fillColor=none;top=0;left=0;bottom=0;right=0;editable=1;overflow=hidden;whiteSpace=wrap;html=1;" vertex="1" parent="4C0OOVaGoJYogmDqNnLf-91">
          <mxGeometry width="30" height="30" as="geometry">
            <mxRectangle width="30" height="30" as="alternateBounds" />
          </mxGeometry>
        </mxCell>
        <mxCell id="4C0OOVaGoJYogmDqNnLf-93" value="name: varchar(50)" style="shape=partialRectangle;connectable=0;fillColor=none;top=0;left=0;bottom=0;right=0;align=left;spacingLeft=6;overflow=hidden;whiteSpace=wrap;html=1;" vertex="1" parent="4C0OOVaGoJYogmDqNnLf-91">
          <mxGeometry x="30" width="238.35710797991078" height="30" as="geometry">
            <mxRectangle width="238.35710797991078" height="30" as="alternateBounds" />
          </mxGeometry>
        </mxCell>
        <mxCell id="4C0OOVaGoJYogmDqNnLf-115" value="animal_has_breed" style="shape=table;startSize=30;container=1;collapsible=1;childLayout=tableLayout;fixedRows=1;rowLines=0;fontStyle=1;align=center;resizeLast=1;html=1;" vertex="1" parent="1">
          <mxGeometry x="307" y="402" width="268.3571079799108" height="120" as="geometry" />
        </mxCell>
        <mxCell id="4C0OOVaGoJYogmDqNnLf-116" value="" style="shape=tableRow;horizontal=0;startSize=0;swimlaneHead=0;swimlaneBody=0;fillColor=none;collapsible=0;dropTarget=0;points=[[0,0.5],[1,0.5]];portConstraint=eastwest;top=0;left=0;right=0;bottom=1;" vertex="1" parent="4C0OOVaGoJYogmDqNnLf-115">
          <mxGeometry y="30" width="268.3571079799108" height="30" as="geometry" />
        </mxCell>
        <mxCell id="4C0OOVaGoJYogmDqNnLf-117" value="PK" style="shape=partialRectangle;connectable=0;fillColor=none;top=0;left=0;bottom=0;right=0;fontStyle=1;overflow=hidden;whiteSpace=wrap;html=1;" vertex="1" parent="4C0OOVaGoJYogmDqNnLf-116">
          <mxGeometry width="30" height="30" as="geometry">
            <mxRectangle width="30" height="30" as="alternateBounds" />
          </mxGeometry>
        </mxCell>
        <mxCell id="4C0OOVaGoJYogmDqNnLf-118" value="id:int" style="shape=partialRectangle;connectable=0;fillColor=none;top=0;left=0;bottom=0;right=0;align=left;spacingLeft=6;fontStyle=5;overflow=hidden;whiteSpace=wrap;html=1;" vertex="1" parent="4C0OOVaGoJYogmDqNnLf-116">
          <mxGeometry x="30" width="238.35710797991078" height="30" as="geometry">
            <mxRectangle width="238.35710797991078" height="30" as="alternateBounds" />
          </mxGeometry>
        </mxCell>
        <mxCell id="4C0OOVaGoJYogmDqNnLf-119" value="" style="shape=tableRow;horizontal=0;startSize=0;swimlaneHead=0;swimlaneBody=0;fillColor=none;collapsible=0;dropTarget=0;points=[[0,0.5],[1,0.5]];portConstraint=eastwest;top=0;left=0;right=0;bottom=0;" vertex="1" parent="4C0OOVaGoJYogmDqNnLf-115">
          <mxGeometry y="60" width="268.3571079799108" height="30" as="geometry" />
        </mxCell>
        <mxCell id="4C0OOVaGoJYogmDqNnLf-120" value="FK" style="shape=partialRectangle;connectable=0;fillColor=none;top=0;left=0;bottom=0;right=0;editable=1;overflow=hidden;whiteSpace=wrap;html=1;" vertex="1" parent="4C0OOVaGoJYogmDqNnLf-119">
          <mxGeometry width="30" height="30" as="geometry">
            <mxRectangle width="30" height="30" as="alternateBounds" />
          </mxGeometry>
        </mxCell>
        <mxCell id="4C0OOVaGoJYogmDqNnLf-121" value="animal_id: int" style="shape=partialRectangle;connectable=0;fillColor=none;top=0;left=0;bottom=0;right=0;align=left;spacingLeft=6;overflow=hidden;whiteSpace=wrap;html=1;" vertex="1" parent="4C0OOVaGoJYogmDqNnLf-119">
          <mxGeometry x="30" width="238.35710797991078" height="30" as="geometry">
            <mxRectangle width="238.35710797991078" height="30" as="alternateBounds" />
          </mxGeometry>
        </mxCell>
        <mxCell id="4C0OOVaGoJYogmDqNnLf-122" style="shape=tableRow;horizontal=0;startSize=0;swimlaneHead=0;swimlaneBody=0;fillColor=none;collapsible=0;dropTarget=0;points=[[0,0.5],[1,0.5]];portConstraint=eastwest;top=0;left=0;right=0;bottom=0;" vertex="1" parent="4C0OOVaGoJYogmDqNnLf-115">
          <mxGeometry y="90" width="268.3571079799108" height="30" as="geometry" />
        </mxCell>
        <mxCell id="4C0OOVaGoJYogmDqNnLf-123" value="FK" style="shape=partialRectangle;connectable=0;fillColor=none;top=0;left=0;bottom=0;right=0;editable=1;overflow=hidden;whiteSpace=wrap;html=1;" vertex="1" parent="4C0OOVaGoJYogmDqNnLf-122">
          <mxGeometry width="30" height="30" as="geometry">
            <mxRectangle width="30" height="30" as="alternateBounds" />
          </mxGeometry>
        </mxCell>
        <mxCell id="4C0OOVaGoJYogmDqNnLf-124" value="breed_id: int" style="shape=partialRectangle;connectable=0;fillColor=none;top=0;left=0;bottom=0;right=0;align=left;spacingLeft=6;overflow=hidden;whiteSpace=wrap;html=1;" vertex="1" parent="4C0OOVaGoJYogmDqNnLf-122">
          <mxGeometry x="30" width="238.35710797991078" height="30" as="geometry">
            <mxRectangle width="238.35710797991078" height="30" as="alternateBounds" />
          </mxGeometry>
        </mxCell>
        <mxCell id="4C0OOVaGoJYogmDqNnLf-125" value="breed" style="shape=table;startSize=30;container=1;collapsible=1;childLayout=tableLayout;fixedRows=1;rowLines=0;fontStyle=1;align=center;resizeLast=1;html=1;" vertex="1" parent="1">
          <mxGeometry x="307" y="555" width="268.3571079799108" height="90" as="geometry" />
        </mxCell>
        <mxCell id="4C0OOVaGoJYogmDqNnLf-126" value="" style="shape=tableRow;horizontal=0;startSize=0;swimlaneHead=0;swimlaneBody=0;fillColor=none;collapsible=0;dropTarget=0;points=[[0,0.5],[1,0.5]];portConstraint=eastwest;top=0;left=0;right=0;bottom=1;" vertex="1" parent="4C0OOVaGoJYogmDqNnLf-125">
          <mxGeometry y="30" width="268.3571079799108" height="30" as="geometry" />
        </mxCell>
        <mxCell id="4C0OOVaGoJYogmDqNnLf-127" value="PK" style="shape=partialRectangle;connectable=0;fillColor=none;top=0;left=0;bottom=0;right=0;fontStyle=1;overflow=hidden;whiteSpace=wrap;html=1;" vertex="1" parent="4C0OOVaGoJYogmDqNnLf-126">
          <mxGeometry width="30" height="30" as="geometry">
            <mxRectangle width="30" height="30" as="alternateBounds" />
          </mxGeometry>
        </mxCell>
        <mxCell id="4C0OOVaGoJYogmDqNnLf-128" value="id:int" style="shape=partialRectangle;connectable=0;fillColor=none;top=0;left=0;bottom=0;right=0;align=left;spacingLeft=6;fontStyle=5;overflow=hidden;whiteSpace=wrap;html=1;" vertex="1" parent="4C0OOVaGoJYogmDqNnLf-126">
          <mxGeometry x="30" width="238.35710797991078" height="30" as="geometry">
            <mxRectangle width="238.35710797991078" height="30" as="alternateBounds" />
          </mxGeometry>
        </mxCell>
        <mxCell id="4C0OOVaGoJYogmDqNnLf-129" value="" style="shape=tableRow;horizontal=0;startSize=0;swimlaneHead=0;swimlaneBody=0;fillColor=none;collapsible=0;dropTarget=0;points=[[0,0.5],[1,0.5]];portConstraint=eastwest;top=0;left=0;right=0;bottom=0;" vertex="1" parent="4C0OOVaGoJYogmDqNnLf-125">
          <mxGeometry y="60" width="268.3571079799108" height="30" as="geometry" />
        </mxCell>
        <mxCell id="4C0OOVaGoJYogmDqNnLf-130" value="" style="shape=partialRectangle;connectable=0;fillColor=none;top=0;left=0;bottom=0;right=0;editable=1;overflow=hidden;whiteSpace=wrap;html=1;" vertex="1" parent="4C0OOVaGoJYogmDqNnLf-129">
          <mxGeometry width="30" height="30" as="geometry">
            <mxRectangle width="30" height="30" as="alternateBounds" />
          </mxGeometry>
        </mxCell>
        <mxCell id="4C0OOVaGoJYogmDqNnLf-131" value="name: varchar(50)" style="shape=partialRectangle;connectable=0;fillColor=none;top=0;left=0;bottom=0;right=0;align=left;spacingLeft=6;overflow=hidden;whiteSpace=wrap;html=1;" vertex="1" parent="4C0OOVaGoJYogmDqNnLf-129">
          <mxGeometry x="30" width="238.35710797991078" height="30" as="geometry">
            <mxRectangle width="238.35710797991078" height="30" as="alternateBounds" />
          </mxGeometry>
        </mxCell>
        <mxCell id="4C0OOVaGoJYogmDqNnLf-135" value="animal_has_task" style="shape=table;startSize=30;container=1;collapsible=1;childLayout=tableLayout;fixedRows=1;rowLines=0;fontStyle=1;align=center;resizeLast=1;html=1;" vertex="1" parent="1">
          <mxGeometry x="682" y="56" width="268.3571079799108" height="120" as="geometry" />
        </mxCell>
        <mxCell id="4C0OOVaGoJYogmDqNnLf-136" value="" style="shape=tableRow;horizontal=0;startSize=0;swimlaneHead=0;swimlaneBody=0;fillColor=none;collapsible=0;dropTarget=0;points=[[0,0.5],[1,0.5]];portConstraint=eastwest;top=0;left=0;right=0;bottom=1;" vertex="1" parent="4C0OOVaGoJYogmDqNnLf-135">
          <mxGeometry y="30" width="268.3571079799108" height="30" as="geometry" />
        </mxCell>
        <mxCell id="4C0OOVaGoJYogmDqNnLf-137" value="PK" style="shape=partialRectangle;connectable=0;fillColor=none;top=0;left=0;bottom=0;right=0;fontStyle=1;overflow=hidden;whiteSpace=wrap;html=1;" vertex="1" parent="4C0OOVaGoJYogmDqNnLf-136">
          <mxGeometry width="30" height="30" as="geometry">
            <mxRectangle width="30" height="30" as="alternateBounds" />
          </mxGeometry>
        </mxCell>
        <mxCell id="4C0OOVaGoJYogmDqNnLf-138" value="id:int" style="shape=partialRectangle;connectable=0;fillColor=none;top=0;left=0;bottom=0;right=0;align=left;spacingLeft=6;fontStyle=5;overflow=hidden;whiteSpace=wrap;html=1;" vertex="1" parent="4C0OOVaGoJYogmDqNnLf-136">
          <mxGeometry x="30" width="238.35710797991078" height="30" as="geometry">
            <mxRectangle width="238.35710797991078" height="30" as="alternateBounds" />
          </mxGeometry>
        </mxCell>
        <mxCell id="4C0OOVaGoJYogmDqNnLf-139" value="" style="shape=tableRow;horizontal=0;startSize=0;swimlaneHead=0;swimlaneBody=0;fillColor=none;collapsible=0;dropTarget=0;points=[[0,0.5],[1,0.5]];portConstraint=eastwest;top=0;left=0;right=0;bottom=0;" vertex="1" parent="4C0OOVaGoJYogmDqNnLf-135">
          <mxGeometry y="60" width="268.3571079799108" height="30" as="geometry" />
        </mxCell>
        <mxCell id="4C0OOVaGoJYogmDqNnLf-140" value="FK" style="shape=partialRectangle;connectable=0;fillColor=none;top=0;left=0;bottom=0;right=0;editable=1;overflow=hidden;whiteSpace=wrap;html=1;" vertex="1" parent="4C0OOVaGoJYogmDqNnLf-139">
          <mxGeometry width="30" height="30" as="geometry">
            <mxRectangle width="30" height="30" as="alternateBounds" />
          </mxGeometry>
        </mxCell>
        <mxCell id="4C0OOVaGoJYogmDqNnLf-141" value="animal_id: int" style="shape=partialRectangle;connectable=0;fillColor=none;top=0;left=0;bottom=0;right=0;align=left;spacingLeft=6;overflow=hidden;whiteSpace=wrap;html=1;" vertex="1" parent="4C0OOVaGoJYogmDqNnLf-139">
          <mxGeometry x="30" width="238.35710797991078" height="30" as="geometry">
            <mxRectangle width="238.35710797991078" height="30" as="alternateBounds" />
          </mxGeometry>
        </mxCell>
        <mxCell id="4C0OOVaGoJYogmDqNnLf-142" style="shape=tableRow;horizontal=0;startSize=0;swimlaneHead=0;swimlaneBody=0;fillColor=none;collapsible=0;dropTarget=0;points=[[0,0.5],[1,0.5]];portConstraint=eastwest;top=0;left=0;right=0;bottom=0;" vertex="1" parent="4C0OOVaGoJYogmDqNnLf-135">
          <mxGeometry y="90" width="268.3571079799108" height="30" as="geometry" />
        </mxCell>
        <mxCell id="4C0OOVaGoJYogmDqNnLf-143" value="FK" style="shape=partialRectangle;connectable=0;fillColor=none;top=0;left=0;bottom=0;right=0;editable=1;overflow=hidden;whiteSpace=wrap;html=1;" vertex="1" parent="4C0OOVaGoJYogmDqNnLf-142">
          <mxGeometry width="30" height="30" as="geometry">
            <mxRectangle width="30" height="30" as="alternateBounds" />
          </mxGeometry>
        </mxCell>
        <mxCell id="4C0OOVaGoJYogmDqNnLf-144" value="task_id: int" style="shape=partialRectangle;connectable=0;fillColor=none;top=0;left=0;bottom=0;right=0;align=left;spacingLeft=6;overflow=hidden;whiteSpace=wrap;html=1;" vertex="1" parent="4C0OOVaGoJYogmDqNnLf-142">
          <mxGeometry x="30" width="238.35710797991078" height="30" as="geometry">
            <mxRectangle width="238.35710797991078" height="30" as="alternateBounds" />
          </mxGeometry>
        </mxCell>
        <mxCell id="4C0OOVaGoJYogmDqNnLf-145" value="task" style="shape=table;startSize=30;container=1;collapsible=1;childLayout=tableLayout;fixedRows=1;rowLines=0;fontStyle=1;align=center;resizeLast=1;html=1;" vertex="1" parent="1">
          <mxGeometry x="1037" y="56" width="268.3571079799108" height="210" as="geometry" />
        </mxCell>
        <mxCell id="4C0OOVaGoJYogmDqNnLf-146" value="" style="shape=tableRow;horizontal=0;startSize=0;swimlaneHead=0;swimlaneBody=0;fillColor=none;collapsible=0;dropTarget=0;points=[[0,0.5],[1,0.5]];portConstraint=eastwest;top=0;left=0;right=0;bottom=1;" vertex="1" parent="4C0OOVaGoJYogmDqNnLf-145">
          <mxGeometry y="30" width="268.3571079799108" height="30" as="geometry" />
        </mxCell>
        <mxCell id="4C0OOVaGoJYogmDqNnLf-147" value="PK" style="shape=partialRectangle;connectable=0;fillColor=none;top=0;left=0;bottom=0;right=0;fontStyle=1;overflow=hidden;whiteSpace=wrap;html=1;" vertex="1" parent="4C0OOVaGoJYogmDqNnLf-146">
          <mxGeometry width="30" height="30" as="geometry">
            <mxRectangle width="30" height="30" as="alternateBounds" />
          </mxGeometry>
        </mxCell>
        <mxCell id="4C0OOVaGoJYogmDqNnLf-148" value="id:int" style="shape=partialRectangle;connectable=0;fillColor=none;top=0;left=0;bottom=0;right=0;align=left;spacingLeft=6;fontStyle=5;overflow=hidden;whiteSpace=wrap;html=1;" vertex="1" parent="4C0OOVaGoJYogmDqNnLf-146">
          <mxGeometry x="30" width="238.35710797991078" height="30" as="geometry">
            <mxRectangle width="238.35710797991078" height="30" as="alternateBounds" />
          </mxGeometry>
        </mxCell>
        <mxCell id="4C0OOVaGoJYogmDqNnLf-149" value="" style="shape=tableRow;horizontal=0;startSize=0;swimlaneHead=0;swimlaneBody=0;fillColor=none;collapsible=0;dropTarget=0;points=[[0,0.5],[1,0.5]];portConstraint=eastwest;top=0;left=0;right=0;bottom=0;" vertex="1" parent="4C0OOVaGoJYogmDqNnLf-145">
          <mxGeometry y="60" width="268.3571079799108" height="30" as="geometry" />
        </mxCell>
        <mxCell id="4C0OOVaGoJYogmDqNnLf-150" value="" style="shape=partialRectangle;connectable=0;fillColor=none;top=0;left=0;bottom=0;right=0;editable=1;overflow=hidden;whiteSpace=wrap;html=1;" vertex="1" parent="4C0OOVaGoJYogmDqNnLf-149">
          <mxGeometry width="30" height="30" as="geometry">
            <mxRectangle width="30" height="30" as="alternateBounds" />
          </mxGeometry>
        </mxCell>
        <mxCell id="4C0OOVaGoJYogmDqNnLf-151" value="title: varchar(50)" style="shape=partialRectangle;connectable=0;fillColor=none;top=0;left=0;bottom=0;right=0;align=left;spacingLeft=6;overflow=hidden;whiteSpace=wrap;html=1;" vertex="1" parent="4C0OOVaGoJYogmDqNnLf-149">
          <mxGeometry x="30" width="238.35710797991078" height="30" as="geometry">
            <mxRectangle width="238.35710797991078" height="30" as="alternateBounds" />
          </mxGeometry>
        </mxCell>
        <mxCell id="4C0OOVaGoJYogmDqNnLf-152" style="shape=tableRow;horizontal=0;startSize=0;swimlaneHead=0;swimlaneBody=0;fillColor=none;collapsible=0;dropTarget=0;points=[[0,0.5],[1,0.5]];portConstraint=eastwest;top=0;left=0;right=0;bottom=0;" vertex="1" parent="4C0OOVaGoJYogmDqNnLf-145">
          <mxGeometry y="90" width="268.3571079799108" height="30" as="geometry" />
        </mxCell>
        <mxCell id="4C0OOVaGoJYogmDqNnLf-153" value="" style="shape=partialRectangle;connectable=0;fillColor=none;top=0;left=0;bottom=0;right=0;editable=1;overflow=hidden;whiteSpace=wrap;html=1;" vertex="1" parent="4C0OOVaGoJYogmDqNnLf-152">
          <mxGeometry width="30" height="30" as="geometry">
            <mxRectangle width="30" height="30" as="alternateBounds" />
          </mxGeometry>
        </mxCell>
        <mxCell id="4C0OOVaGoJYogmDqNnLf-154" value="label: text" style="shape=partialRectangle;connectable=0;fillColor=none;top=0;left=0;bottom=0;right=0;align=left;spacingLeft=6;overflow=hidden;whiteSpace=wrap;html=1;" vertex="1" parent="4C0OOVaGoJYogmDqNnLf-152">
          <mxGeometry x="30" width="238.35710797991078" height="30" as="geometry">
            <mxRectangle width="238.35710797991078" height="30" as="alternateBounds" />
          </mxGeometry>
        </mxCell>
        <mxCell id="4C0OOVaGoJYogmDqNnLf-155" style="shape=tableRow;horizontal=0;startSize=0;swimlaneHead=0;swimlaneBody=0;fillColor=none;collapsible=0;dropTarget=0;points=[[0,0.5],[1,0.5]];portConstraint=eastwest;top=0;left=0;right=0;bottom=0;" vertex="1" parent="4C0OOVaGoJYogmDqNnLf-145">
          <mxGeometry y="120" width="268.3571079799108" height="30" as="geometry" />
        </mxCell>
        <mxCell id="4C0OOVaGoJYogmDqNnLf-156" style="shape=partialRectangle;connectable=0;fillColor=none;top=0;left=0;bottom=0;right=0;editable=1;overflow=hidden;whiteSpace=wrap;html=1;" vertex="1" parent="4C0OOVaGoJYogmDqNnLf-155">
          <mxGeometry width="30" height="30" as="geometry">
            <mxRectangle width="30" height="30" as="alternateBounds" />
          </mxGeometry>
        </mxCell>
        <mxCell id="4C0OOVaGoJYogmDqNnLf-157" value="start_date: timestamp" style="shape=partialRectangle;connectable=0;fillColor=none;top=0;left=0;bottom=0;right=0;align=left;spacingLeft=6;overflow=hidden;whiteSpace=wrap;html=1;" vertex="1" parent="4C0OOVaGoJYogmDqNnLf-155">
          <mxGeometry x="30" width="238.35710797991078" height="30" as="geometry">
            <mxRectangle width="238.35710797991078" height="30" as="alternateBounds" />
          </mxGeometry>
        </mxCell>
        <mxCell id="4C0OOVaGoJYogmDqNnLf-158" style="shape=tableRow;horizontal=0;startSize=0;swimlaneHead=0;swimlaneBody=0;fillColor=none;collapsible=0;dropTarget=0;points=[[0,0.5],[1,0.5]];portConstraint=eastwest;top=0;left=0;right=0;bottom=0;" vertex="1" parent="4C0OOVaGoJYogmDqNnLf-145">
          <mxGeometry y="150" width="268.3571079799108" height="30" as="geometry" />
        </mxCell>
        <mxCell id="4C0OOVaGoJYogmDqNnLf-159" style="shape=partialRectangle;connectable=0;fillColor=none;top=0;left=0;bottom=0;right=0;editable=1;overflow=hidden;whiteSpace=wrap;html=1;" vertex="1" parent="4C0OOVaGoJYogmDqNnLf-158">
          <mxGeometry width="30" height="30" as="geometry">
            <mxRectangle width="30" height="30" as="alternateBounds" />
          </mxGeometry>
        </mxCell>
        <mxCell id="4C0OOVaGoJYogmDqNnLf-160" value="end_date: timestamp" style="shape=partialRectangle;connectable=0;fillColor=none;top=0;left=0;bottom=0;right=0;align=left;spacingLeft=6;overflow=hidden;whiteSpace=wrap;html=1;" vertex="1" parent="4C0OOVaGoJYogmDqNnLf-158">
          <mxGeometry x="30" width="238.35710797991078" height="30" as="geometry">
            <mxRectangle width="238.35710797991078" height="30" as="alternateBounds" />
          </mxGeometry>
        </mxCell>
        <mxCell id="4C0OOVaGoJYogmDqNnLf-161" style="shape=tableRow;horizontal=0;startSize=0;swimlaneHead=0;swimlaneBody=0;fillColor=none;collapsible=0;dropTarget=0;points=[[0,0.5],[1,0.5]];portConstraint=eastwest;top=0;left=0;right=0;bottom=0;" vertex="1" parent="4C0OOVaGoJYogmDqNnLf-145">
          <mxGeometry y="180" width="268.3571079799108" height="30" as="geometry" />
        </mxCell>
        <mxCell id="4C0OOVaGoJYogmDqNnLf-162" style="shape=partialRectangle;connectable=0;fillColor=none;top=0;left=0;bottom=0;right=0;editable=1;overflow=hidden;whiteSpace=wrap;html=1;" vertex="1" parent="4C0OOVaGoJYogmDqNnLf-161">
          <mxGeometry width="30" height="30" as="geometry">
            <mxRectangle width="30" height="30" as="alternateBounds" />
          </mxGeometry>
        </mxCell>
        <mxCell id="4C0OOVaGoJYogmDqNnLf-163" value="is_done: int" style="shape=partialRectangle;connectable=0;fillColor=none;top=0;left=0;bottom=0;right=0;align=left;spacingLeft=6;overflow=hidden;whiteSpace=wrap;html=1;" vertex="1" parent="4C0OOVaGoJYogmDqNnLf-161">
          <mxGeometry x="30" width="238.35710797991078" height="30" as="geometry">
            <mxRectangle width="238.35710797991078" height="30" as="alternateBounds" />
          </mxGeometry>
        </mxCell>
        <mxCell id="4C0OOVaGoJYogmDqNnLf-164" value="user_has_task" style="shape=table;startSize=30;container=1;collapsible=1;childLayout=tableLayout;fixedRows=1;rowLines=0;fontStyle=1;align=center;resizeLast=1;html=1;" vertex="1" parent="1">
          <mxGeometry x="1398" y="56" width="268.3571079799108" height="120" as="geometry" />
        </mxCell>
        <mxCell id="4C0OOVaGoJYogmDqNnLf-165" value="" style="shape=tableRow;horizontal=0;startSize=0;swimlaneHead=0;swimlaneBody=0;fillColor=none;collapsible=0;dropTarget=0;points=[[0,0.5],[1,0.5]];portConstraint=eastwest;top=0;left=0;right=0;bottom=1;" vertex="1" parent="4C0OOVaGoJYogmDqNnLf-164">
          <mxGeometry y="30" width="268.3571079799108" height="30" as="geometry" />
        </mxCell>
        <mxCell id="4C0OOVaGoJYogmDqNnLf-166" value="PK" style="shape=partialRectangle;connectable=0;fillColor=none;top=0;left=0;bottom=0;right=0;fontStyle=1;overflow=hidden;whiteSpace=wrap;html=1;" vertex="1" parent="4C0OOVaGoJYogmDqNnLf-165">
          <mxGeometry width="30" height="30" as="geometry">
            <mxRectangle width="30" height="30" as="alternateBounds" />
          </mxGeometry>
        </mxCell>
        <mxCell id="4C0OOVaGoJYogmDqNnLf-167" value="id:int" style="shape=partialRectangle;connectable=0;fillColor=none;top=0;left=0;bottom=0;right=0;align=left;spacingLeft=6;fontStyle=5;overflow=hidden;whiteSpace=wrap;html=1;" vertex="1" parent="4C0OOVaGoJYogmDqNnLf-165">
          <mxGeometry x="30" width="238.35710797991078" height="30" as="geometry">
            <mxRectangle width="238.35710797991078" height="30" as="alternateBounds" />
          </mxGeometry>
        </mxCell>
        <mxCell id="4C0OOVaGoJYogmDqNnLf-168" value="" style="shape=tableRow;horizontal=0;startSize=0;swimlaneHead=0;swimlaneBody=0;fillColor=none;collapsible=0;dropTarget=0;points=[[0,0.5],[1,0.5]];portConstraint=eastwest;top=0;left=0;right=0;bottom=0;" vertex="1" parent="4C0OOVaGoJYogmDqNnLf-164">
          <mxGeometry y="60" width="268.3571079799108" height="30" as="geometry" />
        </mxCell>
        <mxCell id="4C0OOVaGoJYogmDqNnLf-169" value="FK" style="shape=partialRectangle;connectable=0;fillColor=none;top=0;left=0;bottom=0;right=0;editable=1;overflow=hidden;whiteSpace=wrap;html=1;" vertex="1" parent="4C0OOVaGoJYogmDqNnLf-168">
          <mxGeometry width="30" height="30" as="geometry">
            <mxRectangle width="30" height="30" as="alternateBounds" />
          </mxGeometry>
        </mxCell>
        <mxCell id="4C0OOVaGoJYogmDqNnLf-170" value="user_id: int" style="shape=partialRectangle;connectable=0;fillColor=none;top=0;left=0;bottom=0;right=0;align=left;spacingLeft=6;overflow=hidden;whiteSpace=wrap;html=1;" vertex="1" parent="4C0OOVaGoJYogmDqNnLf-168">
          <mxGeometry x="30" width="238.35710797991078" height="30" as="geometry">
            <mxRectangle width="238.35710797991078" height="30" as="alternateBounds" />
          </mxGeometry>
        </mxCell>
        <mxCell id="4C0OOVaGoJYogmDqNnLf-171" style="shape=tableRow;horizontal=0;startSize=0;swimlaneHead=0;swimlaneBody=0;fillColor=none;collapsible=0;dropTarget=0;points=[[0,0.5],[1,0.5]];portConstraint=eastwest;top=0;left=0;right=0;bottom=0;" vertex="1" parent="4C0OOVaGoJYogmDqNnLf-164">
          <mxGeometry y="90" width="268.3571079799108" height="30" as="geometry" />
        </mxCell>
        <mxCell id="4C0OOVaGoJYogmDqNnLf-172" value="FK" style="shape=partialRectangle;connectable=0;fillColor=none;top=0;left=0;bottom=0;right=0;editable=1;overflow=hidden;whiteSpace=wrap;html=1;" vertex="1" parent="4C0OOVaGoJYogmDqNnLf-171">
          <mxGeometry width="30" height="30" as="geometry">
            <mxRectangle width="30" height="30" as="alternateBounds" />
          </mxGeometry>
        </mxCell>
        <mxCell id="4C0OOVaGoJYogmDqNnLf-173" value="task_id: int" style="shape=partialRectangle;connectable=0;fillColor=none;top=0;left=0;bottom=0;right=0;align=left;spacingLeft=6;overflow=hidden;whiteSpace=wrap;html=1;" vertex="1" parent="4C0OOVaGoJYogmDqNnLf-171">
          <mxGeometry x="30" width="238.35710797991078" height="30" as="geometry">
            <mxRectangle width="238.35710797991078" height="30" as="alternateBounds" />
          </mxGeometry>
        </mxCell>
        <mxCell id="4C0OOVaGoJYogmDqNnLf-174" value="user" style="shape=table;startSize=30;container=1;collapsible=1;childLayout=tableLayout;fixedRows=1;rowLines=0;fontStyle=1;align=center;resizeLast=1;html=1;" vertex="1" parent="1">
          <mxGeometry x="1737" y="56" width="268.3571079799108" height="300" as="geometry" />
        </mxCell>
        <mxCell id="4C0OOVaGoJYogmDqNnLf-175" value="" style="shape=tableRow;horizontal=0;startSize=0;swimlaneHead=0;swimlaneBody=0;fillColor=none;collapsible=0;dropTarget=0;points=[[0,0.5],[1,0.5]];portConstraint=eastwest;top=0;left=0;right=0;bottom=1;" vertex="1" parent="4C0OOVaGoJYogmDqNnLf-174">
          <mxGeometry y="30" width="268.3571079799108" height="30" as="geometry" />
        </mxCell>
        <mxCell id="4C0OOVaGoJYogmDqNnLf-176" value="PK" style="shape=partialRectangle;connectable=0;fillColor=none;top=0;left=0;bottom=0;right=0;fontStyle=1;overflow=hidden;whiteSpace=wrap;html=1;" vertex="1" parent="4C0OOVaGoJYogmDqNnLf-175">
          <mxGeometry width="30" height="30" as="geometry">
            <mxRectangle width="30" height="30" as="alternateBounds" />
          </mxGeometry>
        </mxCell>
        <mxCell id="4C0OOVaGoJYogmDqNnLf-177" value="id:int" style="shape=partialRectangle;connectable=0;fillColor=none;top=0;left=0;bottom=0;right=0;align=left;spacingLeft=6;fontStyle=5;overflow=hidden;whiteSpace=wrap;html=1;" vertex="1" parent="4C0OOVaGoJYogmDqNnLf-175">
          <mxGeometry x="30" width="238.35710797991078" height="30" as="geometry">
            <mxRectangle width="238.35710797991078" height="30" as="alternateBounds" />
          </mxGeometry>
        </mxCell>
        <mxCell id="4C0OOVaGoJYogmDqNnLf-178" value="" style="shape=tableRow;horizontal=0;startSize=0;swimlaneHead=0;swimlaneBody=0;fillColor=none;collapsible=0;dropTarget=0;points=[[0,0.5],[1,0.5]];portConstraint=eastwest;top=0;left=0;right=0;bottom=0;" vertex="1" parent="4C0OOVaGoJYogmDqNnLf-174">
          <mxGeometry y="60" width="268.3571079799108" height="30" as="geometry" />
        </mxCell>
        <mxCell id="4C0OOVaGoJYogmDqNnLf-179" value="" style="shape=partialRectangle;connectable=0;fillColor=none;top=0;left=0;bottom=0;right=0;editable=1;overflow=hidden;whiteSpace=wrap;html=1;" vertex="1" parent="4C0OOVaGoJYogmDqNnLf-178">
          <mxGeometry width="30" height="30" as="geometry">
            <mxRectangle width="30" height="30" as="alternateBounds" />
          </mxGeometry>
        </mxCell>
        <mxCell id="4C0OOVaGoJYogmDqNnLf-180" value="email: varchar(255)" style="shape=partialRectangle;connectable=0;fillColor=none;top=0;left=0;bottom=0;right=0;align=left;spacingLeft=6;overflow=hidden;whiteSpace=wrap;html=1;" vertex="1" parent="4C0OOVaGoJYogmDqNnLf-178">
          <mxGeometry x="30" width="238.35710797991078" height="30" as="geometry">
            <mxRectangle width="238.35710797991078" height="30" as="alternateBounds" />
          </mxGeometry>
        </mxCell>
        <mxCell id="4C0OOVaGoJYogmDqNnLf-181" style="shape=tableRow;horizontal=0;startSize=0;swimlaneHead=0;swimlaneBody=0;fillColor=none;collapsible=0;dropTarget=0;points=[[0,0.5],[1,0.5]];portConstraint=eastwest;top=0;left=0;right=0;bottom=0;" vertex="1" parent="4C0OOVaGoJYogmDqNnLf-174">
          <mxGeometry y="90" width="268.3571079799108" height="30" as="geometry" />
        </mxCell>
        <mxCell id="4C0OOVaGoJYogmDqNnLf-182" value="" style="shape=partialRectangle;connectable=0;fillColor=none;top=0;left=0;bottom=0;right=0;editable=1;overflow=hidden;whiteSpace=wrap;html=1;" vertex="1" parent="4C0OOVaGoJYogmDqNnLf-181">
          <mxGeometry width="30" height="30" as="geometry">
            <mxRectangle width="30" height="30" as="alternateBounds" />
          </mxGeometry>
        </mxCell>
        <mxCell id="4C0OOVaGoJYogmDqNnLf-183" value="lastname: varchar(50)" style="shape=partialRectangle;connectable=0;fillColor=none;top=0;left=0;bottom=0;right=0;align=left;spacingLeft=6;overflow=hidden;whiteSpace=wrap;html=1;" vertex="1" parent="4C0OOVaGoJYogmDqNnLf-181">
          <mxGeometry x="30" width="238.35710797991078" height="30" as="geometry">
            <mxRectangle width="238.35710797991078" height="30" as="alternateBounds" />
          </mxGeometry>
        </mxCell>
        <mxCell id="4C0OOVaGoJYogmDqNnLf-184" style="shape=tableRow;horizontal=0;startSize=0;swimlaneHead=0;swimlaneBody=0;fillColor=none;collapsible=0;dropTarget=0;points=[[0,0.5],[1,0.5]];portConstraint=eastwest;top=0;left=0;right=0;bottom=0;" vertex="1" parent="4C0OOVaGoJYogmDqNnLf-174">
          <mxGeometry y="120" width="268.3571079799108" height="30" as="geometry" />
        </mxCell>
        <mxCell id="4C0OOVaGoJYogmDqNnLf-185" style="shape=partialRectangle;connectable=0;fillColor=none;top=0;left=0;bottom=0;right=0;editable=1;overflow=hidden;whiteSpace=wrap;html=1;" vertex="1" parent="4C0OOVaGoJYogmDqNnLf-184">
          <mxGeometry width="30" height="30" as="geometry">
            <mxRectangle width="30" height="30" as="alternateBounds" />
          </mxGeometry>
        </mxCell>
        <mxCell id="4C0OOVaGoJYogmDqNnLf-186" value="firstname: varchar(50)" style="shape=partialRectangle;connectable=0;fillColor=none;top=0;left=0;bottom=0;right=0;align=left;spacingLeft=6;overflow=hidden;whiteSpace=wrap;html=1;" vertex="1" parent="4C0OOVaGoJYogmDqNnLf-184">
          <mxGeometry x="30" width="238.35710797991078" height="30" as="geometry">
            <mxRectangle width="238.35710797991078" height="30" as="alternateBounds" />
          </mxGeometry>
        </mxCell>
        <mxCell id="4C0OOVaGoJYogmDqNnLf-187" style="shape=tableRow;horizontal=0;startSize=0;swimlaneHead=0;swimlaneBody=0;fillColor=none;collapsible=0;dropTarget=0;points=[[0,0.5],[1,0.5]];portConstraint=eastwest;top=0;left=0;right=0;bottom=0;" vertex="1" parent="4C0OOVaGoJYogmDqNnLf-174">
          <mxGeometry y="150" width="268.3571079799108" height="30" as="geometry" />
        </mxCell>
        <mxCell id="4C0OOVaGoJYogmDqNnLf-188" style="shape=partialRectangle;connectable=0;fillColor=none;top=0;left=0;bottom=0;right=0;editable=1;overflow=hidden;whiteSpace=wrap;html=1;" vertex="1" parent="4C0OOVaGoJYogmDqNnLf-187">
          <mxGeometry width="30" height="30" as="geometry">
            <mxRectangle width="30" height="30" as="alternateBounds" />
          </mxGeometry>
        </mxCell>
        <mxCell id="4C0OOVaGoJYogmDqNnLf-189" value="birthdate: date" style="shape=partialRectangle;connectable=0;fillColor=none;top=0;left=0;bottom=0;right=0;align=left;spacingLeft=6;overflow=hidden;whiteSpace=wrap;html=1;" vertex="1" parent="4C0OOVaGoJYogmDqNnLf-187">
          <mxGeometry x="30" width="238.35710797991078" height="30" as="geometry">
            <mxRectangle width="238.35710797991078" height="30" as="alternateBounds" />
          </mxGeometry>
        </mxCell>
        <mxCell id="4C0OOVaGoJYogmDqNnLf-190" style="shape=tableRow;horizontal=0;startSize=0;swimlaneHead=0;swimlaneBody=0;fillColor=none;collapsible=0;dropTarget=0;points=[[0,0.5],[1,0.5]];portConstraint=eastwest;top=0;left=0;right=0;bottom=0;" vertex="1" parent="4C0OOVaGoJYogmDqNnLf-174">
          <mxGeometry y="180" width="268.3571079799108" height="30" as="geometry" />
        </mxCell>
        <mxCell id="4C0OOVaGoJYogmDqNnLf-191" style="shape=partialRectangle;connectable=0;fillColor=none;top=0;left=0;bottom=0;right=0;editable=1;overflow=hidden;whiteSpace=wrap;html=1;" vertex="1" parent="4C0OOVaGoJYogmDqNnLf-190">
          <mxGeometry width="30" height="30" as="geometry">
            <mxRectangle width="30" height="30" as="alternateBounds" />
          </mxGeometry>
        </mxCell>
        <mxCell id="4C0OOVaGoJYogmDqNnLf-192" value="password: varchar(255)" style="shape=partialRectangle;connectable=0;fillColor=none;top=0;left=0;bottom=0;right=0;align=left;spacingLeft=6;overflow=hidden;whiteSpace=wrap;html=1;" vertex="1" parent="4C0OOVaGoJYogmDqNnLf-190">
          <mxGeometry x="30" width="238.35710797991078" height="30" as="geometry">
            <mxRectangle width="238.35710797991078" height="30" as="alternateBounds" />
          </mxGeometry>
        </mxCell>
        <mxCell id="4C0OOVaGoJYogmDqNnLf-193" style="shape=tableRow;horizontal=0;startSize=0;swimlaneHead=0;swimlaneBody=0;fillColor=none;collapsible=0;dropTarget=0;points=[[0,0.5],[1,0.5]];portConstraint=eastwest;top=0;left=0;right=0;bottom=0;" vertex="1" parent="4C0OOVaGoJYogmDqNnLf-174">
          <mxGeometry y="210" width="268.3571079799108" height="30" as="geometry" />
        </mxCell>
        <mxCell id="4C0OOVaGoJYogmDqNnLf-194" style="shape=partialRectangle;connectable=0;fillColor=none;top=0;left=0;bottom=0;right=0;editable=1;overflow=hidden;whiteSpace=wrap;html=1;" vertex="1" parent="4C0OOVaGoJYogmDqNnLf-193">
          <mxGeometry width="30" height="30" as="geometry">
            <mxRectangle width="30" height="30" as="alternateBounds" />
          </mxGeometry>
        </mxCell>
        <mxCell id="4C0OOVaGoJYogmDqNnLf-195" value="arrival_date: timestamp" style="shape=partialRectangle;connectable=0;fillColor=none;top=0;left=0;bottom=0;right=0;align=left;spacingLeft=6;overflow=hidden;whiteSpace=wrap;html=1;" vertex="1" parent="4C0OOVaGoJYogmDqNnLf-193">
          <mxGeometry x="30" width="238.35710797991078" height="30" as="geometry">
            <mxRectangle width="238.35710797991078" height="30" as="alternateBounds" />
          </mxGeometry>
        </mxCell>
        <mxCell id="4C0OOVaGoJYogmDqNnLf-196" style="shape=tableRow;horizontal=0;startSize=0;swimlaneHead=0;swimlaneBody=0;fillColor=none;collapsible=0;dropTarget=0;points=[[0,0.5],[1,0.5]];portConstraint=eastwest;top=0;left=0;right=0;bottom=0;" vertex="1" parent="4C0OOVaGoJYogmDqNnLf-174">
          <mxGeometry y="240" width="268.3571079799108" height="30" as="geometry" />
        </mxCell>
        <mxCell id="4C0OOVaGoJYogmDqNnLf-197" style="shape=partialRectangle;connectable=0;fillColor=none;top=0;left=0;bottom=0;right=0;editable=1;overflow=hidden;whiteSpace=wrap;html=1;" vertex="1" parent="4C0OOVaGoJYogmDqNnLf-196">
          <mxGeometry width="30" height="30" as="geometry">
            <mxRectangle width="30" height="30" as="alternateBounds" />
          </mxGeometry>
        </mxCell>
        <mxCell id="4C0OOVaGoJYogmDqNnLf-198" value="leaving_date: timestamp" style="shape=partialRectangle;connectable=0;fillColor=none;top=0;left=0;bottom=0;right=0;align=left;spacingLeft=6;overflow=hidden;whiteSpace=wrap;html=1;" vertex="1" parent="4C0OOVaGoJYogmDqNnLf-196">
          <mxGeometry x="30" width="238.35710797991078" height="30" as="geometry">
            <mxRectangle width="238.35710797991078" height="30" as="alternateBounds" />
          </mxGeometry>
        </mxCell>
        <mxCell id="4C0OOVaGoJYogmDqNnLf-199" style="shape=tableRow;horizontal=0;startSize=0;swimlaneHead=0;swimlaneBody=0;fillColor=none;collapsible=0;dropTarget=0;points=[[0,0.5],[1,0.5]];portConstraint=eastwest;top=0;left=0;right=0;bottom=0;" vertex="1" parent="4C0OOVaGoJYogmDqNnLf-174">
          <mxGeometry y="270" width="268.3571079799108" height="30" as="geometry" />
        </mxCell>
        <mxCell id="4C0OOVaGoJYogmDqNnLf-200" style="shape=partialRectangle;connectable=0;fillColor=none;top=0;left=0;bottom=0;right=0;editable=1;overflow=hidden;whiteSpace=wrap;html=1;" vertex="1" parent="4C0OOVaGoJYogmDqNnLf-199">
          <mxGeometry width="30" height="30" as="geometry">
            <mxRectangle width="30" height="30" as="alternateBounds" />
          </mxGeometry>
        </mxCell>
        <mxCell id="4C0OOVaGoJYogmDqNnLf-201" value="is_active: int" style="shape=partialRectangle;connectable=0;fillColor=none;top=0;left=0;bottom=0;right=0;align=left;spacingLeft=6;overflow=hidden;whiteSpace=wrap;html=1;" vertex="1" parent="4C0OOVaGoJYogmDqNnLf-199">
          <mxGeometry x="30" width="238.35710797991078" height="30" as="geometry">
            <mxRectangle width="238.35710797991078" height="30" as="alternateBounds" />
          </mxGeometry>
        </mxCell>
      </root>
    </mxGraphModel>
  </diagram>
</mxfile>
